<svg xmlns="http://www.w3.org/2000/svg" width="340" height="200" viewBox="0 0 340 200"><style>* {
          font-family: 'Segoe UI', Ubuntu, "Helvetica Neue", Sans-Serif
        }</style><rect x="1" y="1" rx="5" ry="5" height="99%" width="99.41176470588235%" stroke="#1a1b27" stroke-width="1" fill="#1a1b27" stroke-opacity="1"></rect><text x="30" y="40" style="font-size: 22px; fill: #70a5fd;">Top Languages by Commit</text><g transform="translate(0,40)"><g transform="translate(40,0)"><rect y="18" width="14" height="14" fill="#178600" stroke="#1a1b27" style="stroke-width: 1px;"></rect><rect y="43.2" width="14" height="14" fill="#b07219" stroke="#1a1b27" style="stroke-width: 1px;"></rect><rect y="68.4" width="14" height="14" fill="#89e051" stroke="#1a1b27" style="stroke-width: 1px;"></rect><rect y="93.60000000000002" width="14" height="14" fill="#3178c6" stroke="#1a1b27" style="stroke-width: 1px;"></rect><rect y="118.80000000000001" width="14" height="14" fill="#4F5D95" stroke="#1a1b27" style="stroke-width: 1px;"></rect><text x="16.8" y="30" style="fill: #38bdae; font-size: 14px;">C#</text><text x="16.8" y="55.2" style="fill: #38bdae; font-size: 14px;">Java</text><text x="16.8" y="80.4" style="fill: #38bdae; font-size: 14px;">Shell</text><text x="16.8" y="105.60000000000002" style="fill: #38bdae; font-size: 14px;">TypeScript</text><text x="16.8" y="130.8" style="fill: #38bdae; font-size: 14px;">PHP</text></g><g transform="translate( 230, 80 )"><g class="arc"><path d="M3.67394039744206e-15,-60A60,60,0,0,1,46.69780776885512,37.673793936675054L27.240387865165488,21.97637979639378A35,35,0,0,0,2.1431318985078682e-15,-35Z" style="fill: #178600; stroke-width: 2px;" stroke="#1a1b27"></path></g><g class="arc"><path d="M46.69780776885512,37.673793936675054A60,60,0,0,1,-58.02881128211743,15.253100051609202L-33.8501399145685,8.897641696772036A35,35,0,0,0,27.240387865165488,21.97637979639378Z" style="fill: #b07219; stroke-width: 2px;" stroke="#1a1b27"></path></g><g class="arc"><path d="M-58.02881128211743,15.253100051609202A60,60,0,0,1,-48.46342362658181,-35.373670581245484L-28.270330448839385,-20.634641172393202A35,35,0,0,0,-33.8501399145685,8.897641696772036Z" style="fill: #89e051; stroke-width: 2px;" stroke="#1a1b27"></path></g><g class="arc"><path d="M-48.46342362658181,-35.373670581245484A60,60,0,0,1,-26.473266074593234,-53.843905721481526L-15.44273854351272,-31.408945004197555A35,35,0,0,0,-28.270330448839385,-20.634641172393202Z" style="fill: #3178c6; stroke-width: 2px;" stroke="#1a1b27"></path></g><g class="arc"><path d="M-26.473266074593234,-53.843905721481526A60,60,0,0,1,4.226888398968133e-14,-60L2.4656848993980778e-14,-35A35,35,0,0,0,-15.44273854351272,-31.408945004197555Z" style="fill: #4F5D95; stroke-width: 2px;" stroke="#1a1b27"></path></g></g></g></svg>