<svg xmlns="http://www.w3.org/2000/svg" width="340" height="200" viewBox="0 0 340 200"><style>* {
          font-family: 'Segoe UI', Ubuntu, "Helvetica Neue", Sans-Serif
        }</style><rect x="1" y="1" rx="5" ry="5" height="99%" width="99.41176470588235%" stroke="#2c292d" stroke-width="1" fill="#2c292d" stroke-opacity="1"></rect><text x="30" y="40" style="font-size: 22px; fill: #eb1f6a;">Top Languages by Commit</text><g transform="translate(0,40)"><g transform="translate(40,0)"><rect y="18" width="14" height="14" fill="#89e051" stroke="#2c292d" style="stroke-width: 1px;"></rect><rect y="43.2" width="14" height="14" fill="#178600" stroke="#2c292d" style="stroke-width: 1px;"></rect><rect y="68.4" width="14" height="14" fill="#4F5D95" stroke="#2c292d" style="stroke-width: 1px;"></rect><rect y="93.60000000000002" width="14" height="14" fill="#3178c6" stroke="#2c292d" style="stroke-width: 1px;"></rect><rect y="118.80000000000001" width="14" height="14" fill="#b07219" stroke="#2c292d" style="stroke-width: 1px;"></rect><text x="16.8" y="30" style="fill: #ffffff; font-size: 14px;">Shell</text><text x="16.8" y="55.2" style="fill: #ffffff; font-size: 14px;">C#</text><text x="16.8" y="80.4" style="fill: #ffffff; font-size: 14px;">PHP</text><text x="16.8" y="105.60000000000002" style="fill: #ffffff; font-size: 14px;">TypeScript</text><text x="16.8" y="130.8" style="fill: #ffffff; font-size: 14px;">Java</text></g><g transform="translate( 230, 80 )"><g class="arc"><path d="M3.67394039744206e-15,-60A60,60,0,0,1,57.46504900109583,17.255959645921035L33.52127858397257,10.065976460120604A35,35,0,0,0,2.1431318985078682e-15,-35Z" style="fill: #89e051; stroke-width: 2px;" stroke="#2c292d"></path></g><g class="arc"><path d="M57.46504900109583,17.255959645921035A60,60,0,0,1,-14.660424368273638,58.181371222601214L-8.551914214826288,33.93913321318404A35,35,0,0,0,33.52127858397257,10.065976460120604Z" style="fill: #178600; stroke-width: 2px;" stroke="#2c292d"></path></g><g class="arc"><path d="M-14.660424368273638,58.181371222601214A60,60,0,0,1,-59.26130043570826,9.386067902413858L-34.56909192082982,5.475206276408084A35,35,0,0,0,-8.551914214826288,33.93913321318404Z" style="fill: #4F5D95; stroke-width: 2px;" stroke="#2c292d"></path></g><g class="arc"><path d="M-59.26130043570826,9.386067902413858A60,60,0,0,1,-45.184287960216665,-39.47632355638275L-26.357501310126388,-23.027855407889938A35,35,0,0,0,-34.56909192082982,5.475206276408084Z" style="fill: #3178c6; stroke-width: 2px;" stroke="#2c292d"></path></g><g class="arc"><path d="M-45.184287960216665,-39.47632355638275A60,60,0,0,1,-1.1021821192326178e-14,-60L-6.429395695523604e-15,-35A35,35,0,0,0,-26.357501310126388,-23.027855407889938Z" style="fill: #b07219; stroke-width: 2px;" stroke="#2c292d"></path></g></g></g></svg>