<svg xmlns="http://www.w3.org/2000/svg" width="340" height="200" viewBox="0 0 340 200"><style>* {
          font-family: 'Segoe UI', Ubuntu, "Helvetica Neue", Sans-Serif
        }</style><rect x="1" y="1" rx="5" ry="5" height="99%" width="99.41176470588235%" stroke="#1a1b27" stroke-width="1" fill="#1a1b27" stroke-opacity="1"></rect><text x="30" y="40" style="font-size: 22px; fill: #70a5fd;">Top Languages by Commit</text><g transform="translate(0,40)"><g transform="translate(40,0)"><rect y="18" width="14" height="14" fill="#178600" stroke="#1a1b27" style="stroke-width: 1px;"></rect><rect y="43.2" width="14" height="14" fill="#b07219" stroke="#1a1b27" style="stroke-width: 1px;"></rect><rect y="68.4" width="14" height="14" fill="#3572A5" stroke="#1a1b27" style="stroke-width: 1px;"></rect><rect y="93.60000000000002" width="14" height="14" fill="#89e051" stroke="#1a1b27" style="stroke-width: 1px;"></rect><rect y="118.80000000000001" width="14" height="14" fill="#3178c6" stroke="#1a1b27" style="stroke-width: 1px;"></rect><text x="16.8" y="30" style="fill: #38bdae; font-size: 14px;">C#</text><text x="16.8" y="55.2" style="fill: #38bdae; font-size: 14px;">Java</text><text x="16.8" y="80.4" style="fill: #38bdae; font-size: 14px;">Python</text><text x="16.8" y="105.60000000000002" style="fill: #38bdae; font-size: 14px;">Shell</text><text x="16.8" y="130.8" style="fill: #38bdae; font-size: 14px;">TypeScript</text></g><g transform="translate( 230, 80 )"><g class="arc"><path d="M3.67394039744206e-15,-60A60,60,0,0,1,47.31010304135211,36.901953203274296L27.597560107455397,21.526139368576676A35,35,0,0,0,2.1431318985078682e-15,-35Z" style="fill: #178600; stroke-width: 2px;" stroke="#1a1b27"></path></g><g class="arc"><path d="M47.31010304135211,36.901953203274296A60,60,0,0,1,-53.72673184905767,26.710265532552306L-31.340593578616975,15.580988227322178A35,35,0,0,0,27.597560107455397,21.526139368576676Z" style="fill: #b07219; stroke-width: 2px;" stroke="#1a1b27"></path></g><g class="arc"><path d="M-53.72673184905767,26.710265532552306A60,60,0,0,1,-54.91447035725504,-24.1743861428198L-32.033441041732104,-14.101725249978216A35,35,0,0,0,-31.340593578616975,15.580988227322178Z" style="fill: #3572A5; stroke-width: 2px;" stroke="#1a1b27"></path></g><g class="arc"><path d="M-54.91447035725504,-24.1743861428198A60,60,0,0,1,-25.05843239832785,-54.51674023397248L-14.617418899024578,-31.80143180315061A35,35,0,0,0,-32.033441041732104,-14.101725249978216Z" style="fill: #89e051; stroke-width: 2px;" stroke="#1a1b27"></path></g><g class="arc"><path d="M-25.05843239832785,-54.51674023397248A60,60,0,0,1,4.226888398968133e-14,-60L2.4656848993980778e-14,-35A35,35,0,0,0,-14.617418899024578,-31.80143180315061Z" style="fill: #3178c6; stroke-width: 2px;" stroke="#1a1b27"></path></g></g></g></svg>