<svg xmlns="http://www.w3.org/2000/svg" width="340" height="200" viewBox="0 0 340 200"><style>* {
          font-family: 'Segoe UI', Ubuntu, "Helvetica Neue", Sans-Serif
        }</style><g class="gpsc-root"><rect x="1" y="1" rx="5" ry="5" height="99%" width="99.41176470588235%" stroke="#1a1b27" stroke-width="1" fill="#1a1b27" stroke-opacity="1"></rect><text x="30" y="40" class="gpsc-item" style="--gpsc-i: 0; font-size: 22px; fill: #70a5fd;">Top Languages by Commit</text><g transform="translate(0,40)"><g transform="translate(40,0)"><rect y="18" width="14" height="14" class="gpsc-item" style="--gpsc-i: 0; stroke-width: 1px;" fill="#178600" stroke="#1a1b27"></rect><rect y="43.2" width="14" height="14" class="gpsc-item" style="--gpsc-i: 1; stroke-width: 1px;" fill="#b07219" stroke="#1a1b27"></rect><rect y="68.4" width="14" height="14" class="gpsc-item" style="--gpsc-i: 2; stroke-width: 1px;" fill="#3178c6" stroke="#1a1b27"></rect><rect y="93.60000000000002" width="14" height="14" class="gpsc-item" style="--gpsc-i: 3; stroke-width: 1px;" fill="#3572A5" stroke="#1a1b27"></rect><rect y="118.80000000000001" width="14" height="14" class="gpsc-item" style="--gpsc-i: 4; stroke-width: 1px;" fill="#e34c26" stroke="#1a1b27"></rect><text x="16.8" y="30" class="gpsc-item" style="--gpsc-i: 0; fill: #38bdae; font-size: 14px;">C#</text><text x="16.8" y="55.2" class="gpsc-item" style="--gpsc-i: 1; fill: #38bdae; font-size: 14px;">Java</text><text x="16.8" y="80.4" class="gpsc-item" style="--gpsc-i: 2; fill: #38bdae; font-size: 14px;">TypeScript</text><text x="16.8" y="105.60000000000002" class="gpsc-item" style="--gpsc-i: 3; fill: #38bdae; font-size: 14px;">Python</text><text x="16.8" y="130.8" class="gpsc-item" style="--gpsc-i: 4; fill: #38bdae; font-size: 14px;">HTML</text></g><g transform="translate( 230, 80 )"><g class="arc" style="--gpsc-i: 0;"><path d="M3.67394039744206e-15,-60A60,60,0,0,1,42.92966761231419,41.91710436917395L25.04230610718328,24.45164421535147A35,35,0,0,0,2.1431318985078682e-15,-35Z" style="fill: #178600; stroke-width: 2px;" stroke="#1a1b27"></path></g><g class="arc" style="--gpsc-i: 1;"><path d="M42.92966761231419,41.91710436917395A60,60,0,0,1,-31.623057190142163,50.990021121284094L-18.44678336091626,29.744178987415722A35,35,0,0,0,25.04230610718328,24.45164421535147Z" style="fill: #b07219; stroke-width: 2px;" stroke="#1a1b27"></path></g><g class="arc" style="--gpsc-i: 2;"><path d="M-31.623057190142163,50.990021121284094A60,60,0,0,1,-58.796128379909675,-11.958899929892382L-34.29774155494731,-6.97602495910389A35,35,0,0,0,-18.44678336091626,29.744178987415722Z" style="fill: #3178c6; stroke-width: 2px;" stroke="#1a1b27"></path></g><g class="arc" style="--gpsc-i: 3;"><path d="M-58.796128379909675,-11.958899929892382A60,60,0,0,1,-37.84022831457882,-46.563044585814474L-22.073466516837648,-27.161776008391776A35,35,0,0,0,-34.29774155494731,-6.97602495910389Z" style="fill: #3572A5; stroke-width: 2px;" stroke="#1a1b27"></path></g><g class="arc" style="--gpsc-i: 4;"><path d="M-37.84022831457882,-46.563044585814474A60,60,0,0,1,-1.1021821192326178e-14,-60L-6.429395695523604e-15,-35A35,35,0,0,0,-22.073466516837648,-27.161776008391776Z" style="fill: #e34c26; stroke-width: 2px;" stroke="#1a1b27"></path></g></g></g></g></svg>