<svg xmlns="http://www.w3.org/2000/svg" width="340" height="200" viewBox="0 0 340 200"><style>* {
          font-family: 'Segoe UI', Ubuntu, "Helvetica Neue", Sans-Serif
        }</style><rect x="1" y="1" rx="5" ry="5" height="99%" width="99.41176470588235%" stroke="#1a1b27" stroke-width="1" fill="#1a1b27" stroke-opacity="1"></rect><text x="30" y="40" style="font-size: 22px; fill: red;">Top Languages by Commit</text><g transform="translate(0,40)"><g transform="translate(40,0)"><rect y="18" width="14" height="14" fill="#178600" stroke="#1a1b27" style="stroke-width: 1px;"></rect><rect y="43.2" width="14" height="14" fill="#b07219" stroke="#1a1b27" style="stroke-width: 1px;"></rect><rect y="68.4" width="14" height="14" fill="#3572A5" stroke="#1a1b27" style="stroke-width: 1px;"></rect><rect y="93.60000000000002" width="14" height="14" fill="#89e051" stroke="#1a1b27" style="stroke-width: 1px;"></rect><rect y="118.80000000000001" width="14" height="14" fill="#3178c6" stroke="#1a1b27" style="stroke-width: 1px;"></rect><text x="16.8" y="30" style="fill: #38bdae; font-size: 14px;">C#</text><text x="16.8" y="55.2" style="fill: #38bdae; font-size: 14px;">Java</text><text x="16.8" y="80.4" style="fill: #38bdae; font-size: 14px;">Python</text><text x="16.8" y="105.60000000000002" style="fill: #38bdae; font-size: 14px;">Shell</text><text x="16.8" y="130.8" style="fill: #38bdae; font-size: 14px;">TypeScript</text></g><g transform="translate( 230, 80 )"><g class="arc"><path d="M3.67394039744206e-15,-60A60,60,0,0,1,47.61609116667324,36.50627154349048L27.77605318055939,21.29532506703611A35,35,0,0,0,2.1431318985078682e-15,-35Z" style="fill: #178600; stroke-width: 2px;" stroke="#1a1b27"></path></g><g class="arc"><path d="M47.61609116667324,36.50627154349048A60,60,0,0,1,-56.14357508087009,21.16362391318421L-32.75041879717422,12.34544728269079A35,35,0,0,0,27.77605318055939,21.29532506703611Z" style="fill: #b07219; stroke-width: 2px;" stroke="#1a1b27"></path></g><g class="arc"><path d="M-56.14357508087009,21.16362391318421A60,60,0,0,1,-54.39912973321381,-25.3127375893832L-31.732825677708057,-14.765763593806867A35,35,0,0,0,-32.75041879717422,12.34544728269079Z" style="fill: #3572A5; stroke-width: 2px;" stroke="#1a1b27"></path></g><g class="arc"><path d="M-54.39912973321381,-25.3127375893832A60,60,0,0,1,-27.50940634418663,-53.32197073055744L-16.047153700775535,-31.104482926158507A35,35,0,0,0,-31.732825677708057,-14.765763593806867Z" style="fill: #89e051; stroke-width: 2px;" stroke="#1a1b27"></path></g><g class="arc"><path d="M-27.50940634418663,-53.32197073055744A60,60,0,0,1,-1.1021821192326178e-14,-60L-6.429395695523604e-15,-35A35,35,0,0,0,-16.047153700775535,-31.104482926158507Z" style="fill: #3178c6; stroke-width: 2px;" stroke="#1a1b27"></path></g></g></g></svg>