<svg xmlns="http://www.w3.org/2000/svg" width="340" height="200" viewBox="0 0 340 200"><style>* {
          font-family: 'Segoe UI', Ubuntu, "Helvetica Neue", Sans-Serif
        }</style><rect x="1" y="1" rx="5" ry="5" height="99%" width="99.41176470588235%" stroke="#1a1b27" stroke-width="1" fill="#1a1b27" stroke-opacity="1"></rect><text x="30" y="40" style="font-size: 22px; fill: red;">Top Languages by Commit</text><g transform="translate(0,40)"><g transform="translate(40,0)"><rect y="18" width="14" height="14" fill="#178600" stroke="#1a1b27" style="stroke-width: 1px;"></rect><rect y="43.2" width="14" height="14" fill="#b07219" stroke="#1a1b27" style="stroke-width: 1px;"></rect><rect y="68.4" width="14" height="14" fill="#3572A5" stroke="#1a1b27" style="stroke-width: 1px;"></rect><rect y="93.60000000000002" width="14" height="14" fill="#89e051" stroke="#1a1b27" style="stroke-width: 1px;"></rect><rect y="118.80000000000001" width="14" height="14" fill="#3178c6" stroke="#1a1b27" style="stroke-width: 1px;"></rect><text x="16.8" y="30" style="fill: #38bdae; font-size: 14px;">C#</text><text x="16.8" y="55.2" style="fill: #38bdae; font-size: 14px;">Java</text><text x="16.8" y="80.4" style="fill: #38bdae; font-size: 14px;">Python</text><text x="16.8" y="105.60000000000002" style="fill: #38bdae; font-size: 14px;">Shell</text><text x="16.8" y="130.8" style="fill: #38bdae; font-size: 14px;">TypeScript</text></g><g transform="translate( 230, 80 )"><g class="arc"><path d="M3.67394039744206e-15,-60A60,60,0,0,1,46.00247198711277,38.51976857504345L26.834775325815784,22.46986500210868A35,35,0,0,0,2.1431318985078682e-15,-35Z" style="fill: #178600; stroke-width: 2px;" stroke="#1a1b27"></path></g><g class="arc"><path d="M46.00247198711277,38.51976857504345A60,60,0,0,1,-54.67577867977086,24.70949667153734L-31.894204229866332,14.413873058396781A35,35,0,0,0,26.834775325815784,22.46986500210868Z" style="fill: #b07219; stroke-width: 2px;" stroke="#1a1b27"></path></g><g class="arc"><path d="M-54.67577867977086,24.70949667153734A60,60,0,0,1,-52.86590400320676,-28.37597917118857L-30.83844400187061,-16.552654516526665A35,35,0,0,0,-31.894204229866332,14.413873058396781Z" style="fill: #3572A5; stroke-width: 2px;" stroke="#1a1b27"></path></g><g class="arc"><path d="M-52.86590400320676,-28.37597917118857A60,60,0,0,1,-26.224270875774092,-53.965615136251586L-15.297491344201553,-31.479942162813426A35,35,0,0,0,-30.83844400187061,-16.552654516526665Z" style="fill: #89e051; stroke-width: 2px;" stroke="#1a1b27"></path></g><g class="arc"><path d="M-26.224270875774092,-53.965615136251586A60,60,0,0,1,-6.431252637433369e-14,-60L-3.7515640385027985e-14,-35A35,35,0,0,0,-15.297491344201553,-31.479942162813426Z" style="fill: #3178c6; stroke-width: 2px;" stroke="#1a1b27"></path></g></g></g></svg>