<svg xmlns="http://www.w3.org/2000/svg" width="340" height="200" viewBox="0 0 340 200"><style>* {
          font-family: 'Segoe UI', Ubuntu, "Helvetica Neue", Sans-Serif
        }</style><rect x="1" y="1" rx="5" ry="5" height="99%" width="99.41176470588235%" stroke="#1a1b27" stroke-width="1" fill="#1a1b27" stroke-opacity="1"></rect><text x="30" y="40" style="font-size: 22px; fill: #70a5fd;">Top Languages by Commit</text><g transform="translate(0,40)"><g transform="translate(40,0)"><rect y="18" width="14" height="14" fill="#178600" stroke="#1a1b27" style="stroke-width: 1px;"></rect><rect y="43.2" width="14" height="14" fill="#b07219" stroke="#1a1b27" style="stroke-width: 1px;"></rect><rect y="68.4" width="14" height="14" fill="#89e051" stroke="#1a1b27" style="stroke-width: 1px;"></rect><rect y="93.60000000000002" width="14" height="14" fill="#4F5D95" stroke="#1a1b27" style="stroke-width: 1px;"></rect><rect y="118.80000000000001" width="14" height="14" fill="#3178c6" stroke="#1a1b27" style="stroke-width: 1px;"></rect><text x="16.8" y="30" style="fill: #38bdae; font-size: 14px;">C#</text><text x="16.8" y="55.2" style="fill: #38bdae; font-size: 14px;">Java</text><text x="16.8" y="80.4" style="fill: #38bdae; font-size: 14px;">Shell</text><text x="16.8" y="105.60000000000002" style="fill: #38bdae; font-size: 14px;">PHP</text><text x="16.8" y="130.8" style="fill: #38bdae; font-size: 14px;">TypeScript</text></g><g transform="translate( 230, 80 )"><g class="arc"><path d="M3.67394039744206e-15,-60A60,60,0,0,1,11.790996571969808,58.83002974535876L6.878081333649055,34.31751735145927A35,35,0,0,0,2.1431318985078682e-15,-35Z" style="fill: #178600; stroke-width: 2px;" stroke="#1a1b27"></path></g><g class="arc"><path d="M11.790996571969808,58.83002974535876A60,60,0,0,1,-49.348505716839725,34.128067386171125L-28.786628334823174,19.90803930859982A35,35,0,0,0,6.878081333649055,34.31751735145927Z" style="fill: #b07219; stroke-width: 2px;" stroke="#1a1b27"></path></g><g class="arc"><path d="M-49.348505716839725,34.128067386171125A60,60,0,0,1,-53.92764277795001,-26.302268807344646L-31.457791620470843,-15.342990137617711A35,35,0,0,0,-28.786628334823174,19.90803930859982Z" style="fill: #89e051; stroke-width: 2px;" stroke="#1a1b27"></path></g><g class="arc"><path d="M-53.92764277795001,-26.302268807344646A60,60,0,0,1,-29.393383094285205,-52.30706482180575L-17.146140138333035,-30.512454479386687A35,35,0,0,0,-31.457791620470843,-15.342990137617711Z" style="fill: #4F5D95; stroke-width: 2px;" stroke="#1a1b27"></path></g><g class="arc"><path d="M-29.393383094285205,-52.30706482180575A60,60,0,0,1,-1.1021821192326178e-14,-60L-6.429395695523604e-15,-35A35,35,0,0,0,-17.146140138333035,-30.512454479386687Z" style="fill: #3178c6; stroke-width: 2px;" stroke="#1a1b27"></path></g></g></g></svg>