<svg xmlns="http://www.w3.org/2000/svg" width="340" height="200" viewBox="0 0 340 200"><style>* {
          font-family: 'Segoe UI', Ubuntu, "Helvetica Neue", Sans-Serif
        }</style><g class="gpsc-root"><rect x="1" y="1" rx="5" ry="5" height="99%" width="99.41176470588235%" stroke="#1a1b27" stroke-width="1" fill="#1a1b27" stroke-opacity="1"></rect><text x="30" y="40" class="gpsc-item" style="--gpsc-i: 0; font-size: 22px; fill: #70a5fd;">Top Languages by Commit</text><g transform="translate(0,40)"><g transform="translate(40,0)"><rect y="18" width="14" height="14" class="gpsc-item" style="--gpsc-i: 0; stroke-width: 1px;" fill="#178600" stroke="#1a1b27"></rect><rect y="43.2" width="14" height="14" class="gpsc-item" style="--gpsc-i: 1; stroke-width: 1px;" fill="#b07219" stroke="#1a1b27"></rect><rect y="68.4" width="14" height="14" class="gpsc-item" style="--gpsc-i: 2; stroke-width: 1px;" fill="#3178c6" stroke="#1a1b27"></rect><rect y="93.60000000000002" width="14" height="14" class="gpsc-item" style="--gpsc-i: 3; stroke-width: 1px;" fill="#3572A5" stroke="#1a1b27"></rect><rect y="118.80000000000001" width="14" height="14" class="gpsc-item" style="--gpsc-i: 4; stroke-width: 1px;" fill="#e34c26" stroke="#1a1b27"></rect><text x="16.8" y="30" class="gpsc-item" style="--gpsc-i: 0; fill: #38bdae; font-size: 14px;">C#</text><text x="16.8" y="55.2" class="gpsc-item" style="--gpsc-i: 1; fill: #38bdae; font-size: 14px;">Java</text><text x="16.8" y="80.4" class="gpsc-item" style="--gpsc-i: 2; fill: #38bdae; font-size: 14px;">TypeScript</text><text x="16.8" y="105.60000000000002" class="gpsc-item" style="--gpsc-i: 3; fill: #38bdae; font-size: 14px;">Python</text><text x="16.8" y="130.8" class="gpsc-item" style="--gpsc-i: 4; fill: #38bdae; font-size: 14px;">HTML</text></g><g transform="translate( 230, 80 )"><g class="arc" style="--gpsc-i: 0;"><path d="M3.67394039744206e-15,-60A60,60,0,0,1,43.03055185073761,41.813533782986845L25.101155246263605,24.391228040075656A35,35,0,0,0,2.1431318985078682e-15,-35Z" style="fill: #178600; stroke-width: 2px;" stroke="#1a1b27"></path></g><g class="arc" style="--gpsc-i: 1;"><path d="M43.03055185073761,41.813533782986845A60,60,0,0,1,-33.782784803175566,49.58551654407091L-19.70662446851908,28.92488465070803A35,35,0,0,0,25.101155246263605,24.391228040075656Z" style="fill: #b07219; stroke-width: 2px;" stroke="#1a1b27"></path></g><g class="arc" style="--gpsc-i: 2;"><path d="M-33.782784803175566,49.58551654407091A60,60,0,0,1,-58.508909900942136,-13.293135905550473L-34.13019744221624,-7.754329278237776A35,35,0,0,0,-19.70662446851908,28.92488465070803Z" style="fill: #3178c6; stroke-width: 2px;" stroke="#1a1b27"></path></g><g class="arc" style="--gpsc-i: 3;"><path d="M-58.508909900942136,-13.293135905550473A60,60,0,0,1,-37.31027248854988,-46.98876000524123L-21.76432561832076,-27.410110003057387A35,35,0,0,0,-34.13019744221624,-7.754329278237776Z" style="fill: #3572A5; stroke-width: 2px;" stroke="#1a1b27"></path></g><g class="arc" style="--gpsc-i: 4;"><path d="M-37.31027248854988,-46.98876000524123A60,60,0,0,1,-1.1021821192326178e-14,-60L-6.429395695523604e-15,-35A35,35,0,0,0,-21.76432561832076,-27.410110003057387Z" style="fill: #e34c26; stroke-width: 2px;" stroke="#1a1b27"></path></g></g></g></g></svg>